# AST/ASF file generated using VICON BodyLanguage
# -----------------------------------------------
:version 1.10
:name VICON
:units
  mass 1.0
  length 0.45
  angle deg
:documentation
   .ast/.asf automatically generated from VICON data using
   VICON BodyBuilder and BodyLanguage model FoxedUp or BRILLIANT.MOD
:root
   order TX TY TZ RX RY RZ
   axis XYZ
   position 0 0 0  
   orientation 0 0 0 
:bonedata
  begin
     id 1 
     name lhipjoint
     direction 0.660183 -0.676772 0.325788 
     length 2.75133 
     axis 0 0 0  XYZ
  end
  begin
     id 2 
     name lfemur
     direction 0.34202 -0.939693 0  
     length 7.70317  
     axis 0 0 20  XYZ
    dof rx ry rz
    limits (-160.0 20.0)
           (-70.0 70.0)
           (-60.0 70.0)
  end
  begin
     id 3 
     name ltibia
     direction 0.342105 -0.939662 0   
     length 7.18701   
     axis 0 0 20   XYZ
    dof rx
    limits (-10.0 170.0)
  end
  begin
     id 4 
     name lfoot
     direction 0.14163 -0.389126 0.910232   
     length 2.41719   
     axis -90 7.62852e-016 20   XYZ
    dof rx rz
    limits (-45.0 90.0)
           (-70.0 20.0)
  end
  begin
     id 5 
     name ltoes
     direction 1.53533e-011 -4.21926e-011 1   
     length 1.18611   
     axis -90 7.62852e-016 20   XYZ
    dof rx
    limits (-90.0 20.0)
  end
  begin
     id 6 
     name rhipjoint
     direction -0.6658 -0.67229 0.323631   
     length 2.76968  
     axis 0 0 0  XYZ 
  end
  begin
     id 7 
     name rfemur
     direction -0.34202 -0.939693 0   
     length 7.92547   
     axis 0 0 -20   XYZ
    dof rx ry rz
    limits (-160.0 20.0)
           (-70.0 70.0)
           (-70.0 60.0)
  end
  begin
     id 8 
     name rtibia
     direction -0.342022 -0.939692 0   
     length 7.22641   
     axis 0 0 -20   XYZ
    dof rx
    limits (-10.0 170.0)
 end
 begin
     id 9 
     name rfoot
     direction -0.105675 -0.29034 0.951071   
     length 2.48149  
     axis -90 -7.62852e-016 -20   XYZ
    dof rx rz
    limits (-45.0 90.0)
           (-20.0 70.0)
  end
  begin
     id 10 
     name rtoes
     direction -1.5349e-011 -4.21859e-011 1   
     length 1.23343   
     axis -90 -7.62852e-016 -20   XYZ
    dof rx
    limits (-90.0 20.0)
  end
  begin
     id 11 
     name lowerback
     direction 0.0104173 0.993624 -0.112266   
     length 2.00527   
     axis 0 0 0   XYZ
    dof rx ry rz
    limits (-20.0 45.0)
           (-30.0 30.0)
           (-30.0 30.0)
  end
  begin
     id 12 
     name upperback
     direction 0.00733149 0.999856 -0.0152913   
     length 2.01385   
     axis 0 0 0   XYZ
    dof rx ry rz
    limits (-20.0 45.0)
           (-30.0 30.0)
           (-30.0 30.0)
  end
  begin
     id 13 
     name thorax
     direction 0.0026304 0.999318 0.036841   
     length 2.03734   
     axis 0 0 0   XYZ
    dof rx ry rz
    limits (-20.0 45.0)
           (-30.0 30.0)
           (-30.0 30.0)
  end
  begin
     id 14 
     name lowerneck
     direction 0.0293154 0.998757 0.0403082   
     length 1.65303   
     axis 0 0 0   XYZ
    dof rx ry rz
    limits (-20.0 45.0)
           (-30.0 30.0)
           (-30.0 30.0)
  end
  begin
     id 15 
     name upperneck
     direction -0.0376619 0.998184 -0.0470083   
     length 1.60926   
     axis 0 0 0   XYZ
    dof rx ry rz
    limits (-20.0 45.0)
           (-30.0 30.0)
           (-30.0 30.0)
  end
  begin
     id 16
     name head
     direction -0.0170133 0.999635 -0.0209778  
     length 1.73625  
     axis 0 0 0   XYZ
    dof rx ry rz
    limits (-20.0 45.0)
           (-30.0 30.0)
           (-30.0 30.0)
  end
  begin
     id 17 
     name lclavicle
     direction 0.919857 0.39181 -0.0186333  
     length 3.75313  
     axis 0 0 0   XYZ
    dof ry rz
    limits (-20.0 10.0)
           (0.0 20.0)
  end
  begin
     id 18 
     name lhumerus
     direction 1 -4.48988e-011 1.44029e-027   
     length 5.49313   
     axis 180 -30 -90   XYZ
    dof rx ry rz
    limits (-60.0 90.0)
           (-90.0 90.0)
           (-90.0 90.0)
  end
  begin
     id 19
     name lradius
     direction 1 -4.48924e-011 7.46281e-027   
     length 3.29037   
     axis 180 -30 -90   XYZ
    dof rx
    limits (-10.0 170.0)
  end
  begin
     id 20
     name lwrist
     direction 1 -4.48955e-011 2.19879e-026   
     length 1.64519   
     axis -1.34358e-014 90 90   XYZ
    dof ry
    limits (-180.0 0.0)
 end
  begin
     id 21 
     name lhand
     direction 1 -4.48978e-011 4.39747e-026   
     length 0.729656   
     axis -2.80598e-014 90 90   XYZ
    dof rx rz
    limits (-90.0 90.0)
           (-45.0 45.0)
  end
  begin
     id 22 
     name lfingers
     direction 1 -4.49071e-011 8.79411e-026   
     length 0.588268   
     axis -5.61193e-014 90 90   XYZ
    dof rx
    limits (0.0 90.0)
  end
  begin
     id 23
     name lthumb
     direction 0.707107 -6.34817e-011 0.707107   
     length 0.844638   
     axis -90 45 -9.86923e-015   XYZ
    dof rx rz
    limits (-45.0 45.0)
           (-45.0 45.0)
  end
  begin
     id 24 
     name rclavicle
     direction -0.919898 0.388279 0.0550233   
     length 3.7171  
     axis 0 0 0   XYZ 
    dof ry rz
    limits (-10.0 20.0)
           (-20.0 0.0)
  end
  begin
     id 25 
     name rhumerus
     direction -1 -4.48968e-011 9.98372e-028  
     length 5.23684   
     axis 180 30 90   XYZ
    dof rx ry rz
    limits (-90.0 60.0)
           (-90.0 90.0)
           (-90.0 90.0)
  end
  begin
     id 26 
     name rradius
     direction -1 -4.48956e-011 1.01023e-026   
     length 3.38251   
     axis 180 30 90   XYZ
    dof rx
    limits (-10.0 170.0)
  end
  begin
     id 27 
     name rwrist
     direction -1 -4.4892e-011 2.19886e-026   
     length 1.69126   
     axis -1.34358e-014 -90 -90   XYZ
    dof ry
    limits (-180.0 0.0)
  end
  begin
     id 28
     name rhand
     direction -1 -4.49024e-011 4.39727e-026   
     length 0.691454   
     axis -2.80598e-014 -90 -90   XYZ
    dof rx rz
    limits (-90.0 90.0)
           (-45.0 45.0)
  end
  begin
     id 29
     name rfingers
     direction -1 -4.49097e-011 8.79388e-026   
     length 0.557468   
     axis -5.61193e-014 -90 -90   XYZ
    dof rx
    limits (0.0 90.0)
  end
  begin
     id 30
     name rthumb
     direction -0.707107 -6.34938e-011 0.707107   
     length 0.800416   
     axis -90 -45 9.86923e-015   XYZ
    dof rx rz
    limits (-45.0 45.0)
           (-45.0 45.0)
  end
:hierarchy
  begin
    root lhipjoint rhipjoint lowerback
    lhipjoint lfemur
    lfemur ltibia
    ltibia lfoot
    lfoot ltoes
    rhipjoint rfemur
    rfemur rtibia
    rtibia rfoot
    rfoot rtoes
    lowerback upperback
    upperback thorax
    thorax lowerneck lclavicle rclavicle
    lowerneck upperneck
    upperneck head
    lclavicle lhumerus
    lhumerus lradius
    lradius lwrist
    lwrist lhand lthumb
    lhand lfingers
    rclavicle rhumerus
    rhumerus rradius
    rradius rwrist
    rwrist rhand rthumb
    rhand rfingers
  end

#!OML:ASF H:\BabyWalks\Project 1\Capture day 1\Session 1\baby.ASF
:FULLY-SPECIFIED
:DEGREES
83
root -31.0857 17.7873 -3.42686 -23.7108 75.2826 -23.8353
lowerback 14.417 -3.79361 -2.10845
upperback 4.75226 -4.93041 3.92005
thorax -2.48744 -2.40666 6.10294
lowerneck 0.293191 9.7177 2.26574
upperneck -6.51385 12.6085 -13.4265
head -1.0474 6.6036 -4.85977
rclavicle -1.0958e-014 -5.01931e-015
rhumerus -44.8691 -10.9685 -57.2995
rradius 41.7771
rwrist 5.15583
rhand -7.5283 -10.9687
rfingers 7.12502
rthumb 18.3627 -40.122
lclavicle -1.0958e-014 -5.01931e-015
lhumerus -47.9284 5.21096 78.9821
lradius 61.3512
lwrist 5.43174
lhand -0.675966 10.3836
lfingers 7.12502
lthumb 24.9428 38.7757
rfemur -2.28593 10.7609 23.0686
rtibia 12.9169
rfoot -14.0496 -4.14913
rtoes 10.8473
lfemur -3.13548 -3.97624 -8.06686
ltibia 24.0992
lfoot -18.9678 10.7779
ltoes -6.70178
84
root -31.0775 17.7865 -3.41936 -24.0258 75.0594 -24.2137
lowerback 14.4153 -3.8664 -2.28077
upperback 4.70932 -5.05884 3.83843
thorax -2.50871 -2.47212 6.13446
lowerneck 0.529154 9.90891 2.30046
upperneck -6.6257 12.8492 -13.4679
head -1.09993 6.73318 -4.89639
rclavicle -8.09054e-014 3.66758e-014
rhumerus -45.2798 -12.2279 -54.3096
rradius 42.248
rwrist 4.63246
rhand -7.72122 -11.0115
rfingers 7.12502
rthumb 18.1771 -40.1822
lclavicle -8.09054e-014 3.66758e-014
lhumerus -48.195 5.23803 78.7234
lradius 61.6448
lwrist 5.8937
lhand -0.975979 10.413
lfingers 7.12502
lthumb 24.6552 38.8448
rfemur -2.2411 10.7212 23.2841
rtibia 12.7323
rfoot -13.9165 -4.02165
rtoes 11.1012
lfemur -3.08505 -4.08028 -7.8512
ltibia 24.1146
lfoot -19.0561 10.9293
ltoes -6.91576
85
root -31.0678 17.7853 -3.41278 -24.356 74.797 -24.6001
lowerback 14.401 -3.92392 -2.43124
upperback 4.67247 -5.16475 3.74346
thorax -2.52261 -2.52631 6.13459
lowerneck 0.738072 10.0889 2.34179
upperneck -6.70017 13.0791 -13.4711
head -1.13846 6.85382 -4.91773
rclavicle -3.29983e-014 2.28602e-014
rhumerus -45.6238 -13.3924 -51.1879
rradius 42.8074
rwrist 3.87049
rhand -7.90278 -11.113
rfingers 7.12502
rthumb 18.0024 -40.2998
lclavicle -3.29983e-014 2.28602e-014
lhumerus -48.4541 5.22411 78.467
lradius 61.8868
lwrist 6.33017
lhand -1.25192 10.4466
lfingers 7.12502
lthumb 24.3907 38.9142
rfemur -2.16387 10.6534 23.516
rtibia 12.497
rfoot -13.7522 -3.83873
rtoes 11.3795
lfemur -3.0153 -4.1892 -7.62314
ltibia 24.1471
lfoot -19.1775 11.1092
ltoes -7.05357
86
root -31.0582 17.7843 -3.40684 -24.7036 74.5181 -25.0116
lowerback 14.3796 -3.97076 -2.56625
upperback 4.63371 -5.25497 3.63746
thorax -2.53904 -2.57238 6.11138
lowerneck 0.927155 10.2539 2.39246
upperneck -6.75257 13.2919 -13.4453
head -1.16911 6.96329 -4.92872
rclavicle -3.27498e-014 2.26615e-014
rhumerus -45.8817 -14.4757 -47.9523
rradius 43.45
rwrist 2.88903
rhand -8.06574 -11.2844
rfingers 7.12502
rthumb 17.8456 -40.4856
lclavicle -3.27498e-014 2.26615e-014
lhumerus -48.699 5.16807 78.213
lradius 62.073
lwrist 6.73517
lhand -1.5007 10.4983
lfingers 7.12502
lthumb 24.1522 38.9978
rfemur -2.07532 10.5505 23.7585
rtibia 12.2139
rfoot -13.5519 -3.6149
rtoes 11.6545
lfemur -2.95445 -4.30367 -7.38092
ltibia 24.1945
lfoot -19.32 11.295
ltoes -7.12285
87
root -31.0486 17.7834 -3.40125 -25.0581 74.22 -25.4347
lowerback 14.3491 -4.00529 -2.6879
upperback 4.59425 -5.32749 3.52256
thorax -2.55563 -2.60941 6.06779
lowerneck 1.10127 10.4051 2.44604
upperneck -6.79067 13.4882 -13.3945
head -1.19546 7.06273 -4.93033
rclavicle 1.2424e-013 -4.45278e-014
rhumerus -46.0331 -15.467 -44.6314
rradius 44.1707
rwrist 1.73421
rhand -8.21992 -11.5351
rfingers 7.12502
rthumb 17.6972 -40.7498
lclavicle 1.2424e-013 -4.45278e-014
lhumerus -48.928 5.07452 77.9626
lradius 62.2027
lwrist 7.10309
lhand -1.69775 10.534
lfingers 7.12502
lthumb 23.9633 39.0585
rfemur -1.97292 10.4216 24.0123
rtibia 11.8873
rfoot -13.3225 -3.35434
rtoes 11.9482
lfemur -2.89553 -4.42482 -7.1257
ltibia 24.2541
lfoot -19.4847 11.4894
ltoes -7.11224
